<svg xmlns="http://www.w3.org/2000/svg" xmlns:xlink="http://www.w3.org/1999/xlink" width="288" height="129" viewBox="0 0 288 129"><defs><clipPath id="b"><rect width="288" height="129"></rect></clipPath></defs><g id="a" clip-path="url(#b)"><g transform="translate(61.504 -40.465) rotate(30)"><path d="M287.925-648c.261.114.142.251.494-.831C288.205-648.9,288.318-649.046,287.925-648Zm15.933-23.9c-.243-.078.01-.609-1.793,4.946C302.307-666.879,302.055-666.348,303.858-671.9Zm-31.5,30.932c1.423-2.192.5-4.644-.914-7.023-.759-1.277-1.584-1.477-2.827-.66-7.088,4.657-8.8,22.157-3.834,19.1C268.612-631.905,270.8-636.782,272.36-640.971Zm36.693-7.993a176.169,176.169,0,0,1,21.494-15.705c-13.287-20.5,1.369-16.375-17.73,3.573C311.968-660.209,309.245-650,309.054-648.965Zm-53.241-1.877c-21.295,13.548-41.877,47.792-43.548,67.193C209.915-556.364,249.45-598.494,255.813-650.841Zm48.566,9.253c-.569-.391-12.795,12.672-17.319,25.113-7.741,21.287,8.2,29.542,31.256,16.13,14.75-8.579,29.714-24.25,25.348-40.95-1.926-7.367-4.422-10.251-12.442-22.3-.451-.678-22.358,15.213-23.5,18.893-.7,2.258-8.819,26.912-6.448,27.18,2.294-4.1,1.861-3.609,2.389-3.434-.025.537.255.554-1.141,3.227-1.026,1.966-2.68,1.2-2.808-.388C299.235-624.107,302.96-636.514,304.379-641.588Zm-97.563,7.827c-2.192,1.55-6.932,1.009-8.82-5.042-2.726-8.736.674-23.926,10.1-36.845,20.342-27.865,50.218-25.24,49.72,21.745a47.377,47.377,0,0,1,8.434-2.754c5.287-.819,8.9,2.212,9.238,7.551a46.168,46.168,0,0,1-.545,6.811,7.231,7.231,0,0,0,2.058-.474c6.383-3.925,6.666-8.676,8.4-2.649l2.21-1.244c-.959-1.445-.977-2.382-.054-3.444,1.6-1.843,1.942.9,2.442,1.051l1.466-3.439c1.253-.155.734,1.08,1.1,1.673,1.98-.187,2.823-1.63,6-7.187,2.542-4.451.219-10.717,5.612-17.53a1.111,1.111,0,0,1,1.164,1.36c-.284,2.509-.31,3.36-3.566,11.781-1.9,4.915,4.323,6.959,4.212,2.734,1.749-.255.746.646,2.214-1.183l1,1.536c2.021-2.952,20.789-74.674,20.739-42.482-2.1-.291.515-4.379-1.182-7.158-4.952,5.975-13.84,39.026-15.9,46.48,2.678-1.97,11.262-13.427,10.8-17.839-1.412-13.345,8-22.138,15.211-22.689,6.288-.481,10.343,5.527,5.292,15.885-2.7,5.546-7.792,11.547-9.141,12.578-1.086-.577-.419-.59,4.18-6.856,12.005-16.357,5.008-24.716-4.914-17.955a19.933,19.933,0,0,0-7.984,20.675c1.039,4.709,3.472,8.751,6.344,13.088,6.066-5.152,29.56-14.763,30.685-.14.437,5.69-2.22,9.663-5.563,15.99a7.162,7.162,0,0,1-.956,1.162c-1.2-.526-1.22-.6-.662-2.162.37-.319.808-.531.985-.876,12.995-25.282-3.524-25.548-24.09-13.469,7.995,12.671,32.833,36.405-8.752,63.667-36.46,23.9-60.68-1.855-19.728-43.016,1.2-1.208,1.058-1.3,4.812-13.891l-1.642-.867c-2.536,3.69-5.055,3.338-7.273.119-1.813,3.487-5.338,10.934-8.716,8.874-2.466,3.065-5.327,7.753-7.514,4.5-1.021-1.517-.015-1.633-2.306.466-2.681,2.457-4.578,4.724-7.072,3.522-1.757,4-1.95,5.712-6.374,11.19-2.336,2.892-6.688,3.4-7.532-.333-1.776-7.85,5.776-23.993,11.031-18.065a19.87,19.87,0,0,1,1.478,2.159c1.1-2.444.024-9.229-4.725-8.859-5.16.4-5.692,1.109-10.915,3.373-.438,3.169-.764,6.058-1.247,8.92-6.874,40.763-41.906,84.874-46.176,64.529-2.264-10.787,6.436-28.944,12.4-38.791,17.575-29.006,32.992-33.171,33.173-36.022,1.341-21.121-5.9-43.8-25.072-38.167-22.555,6.623-38.515,42.983-30.256,56.062,2.338,3.7,5.461.483,6.182,1.948" transform="translate(-197.086 722.628)" fill="#231f20"></path><path d="M836.879-751.807c-7.648,6.285-16.289,34.41-16.33,36.092C833.351-728.944,839.248-750.573,836.879-751.807Zm-21.631,53.891c14.78-5.591,59.069-28.334,71.164-35.163l.736.774c-1.84,1.569-30.939,17.723-61.939,31.8-7.991,3.628-10.1,2.517-10.815,5.225-1.282,4.87-4.545,17.283-5.176,17.407-.09-.287-.305-.6-.252-.856,5.576-27.183,5.39-20.61,7.964-31.186-2.455,1.82-4.371,3.977-7.1,4.767-1.746,3.746-4.316,10.708-7.635,8.212-2.645,2.314-4.981,5.295-9.208,4.5-.676,1.05-2.474,4.765-5.187,3.583-4.026-1.755-.6-8.8,1.891-12.331.3-.421.683-.691,1.152-.294-1.75,3.129-3.284,6.281-3.527,9.879a8.9,8.9,0,0,0,.493,2.2,9.1,9.1,0,0,0,2-1.054,5.491,5.491,0,0,0,2.057-4.554,10.243,10.243,0,0,1,.5-2.71c2.181.161,1.74.638.994,4.444,6.936-1.046,8.712-6.088,11.031-10.249l1.129.516c-.168,2.2-2.349,3.474-2.169,6,3.112-2.1,4.419-5.088,5.529-8.236-.45-.737-.946-1.458.2-2.146,1.776,1.209.376,1.243,5.7-2.637,6.731-4.907,2.6-12.791,17.978-39.633a11.461,11.461,0,0,1,2.053-2.365c7.156-6.955,3.4,19.334-14.6,38.806-1.53,1.655-4.749,14.232-4.961,15.306" transform="translate(-614.515 753.169)" fill="#231f20"></path></g></g></svg>