<svg xmlns="http://www.w3.org/2000/svg" width="269.03" height="121.015" viewBox="0 0 269.03 121.015"><g transform="translate(-392.41 -1560.274)"><path d="M130,1A349.823,349.823,0,0,0,79.543,4.526a227.722,227.722,0,0,0-41.14,9.6,122.97,122.97,0,0,0-15.745,6.6,66.847,66.847,0,0,0-11.809,7.528A31.774,31.774,0,0,0,3.5,36.44,16.738,16.738,0,0,0,1,45a16.738,16.738,0,0,0,2.5,8.56,31.774,31.774,0,0,0,7.347,8.182A66.847,66.847,0,0,0,22.658,69.27a122.971,122.971,0,0,0,15.745,6.6,227.722,227.722,0,0,0,41.14,9.6A349.823,349.823,0,0,0,130,89a349.823,349.823,0,0,0,50.457-3.526,227.722,227.722,0,0,0,41.14-9.6,122.972,122.972,0,0,0,15.745-6.6,66.847,66.847,0,0,0,11.809-7.528A31.774,31.774,0,0,0,256.5,53.56,16.738,16.738,0,0,0,259,45a16.738,16.738,0,0,0-2.5-8.56,31.774,31.774,0,0,0-7.347-8.182,66.848,66.848,0,0,0-11.809-7.528,122.971,122.971,0,0,0-15.745-6.6,227.722,227.722,0,0,0-41.14-9.6A349.823,349.823,0,0,0,130,1m0-1c71.8,0,130,20.147,130,45S201.8,90,130,90,0,69.853,0,45,58.2,0,130,0Z" transform="translate(392.41 1591.96) rotate(-7)" fill="#ddd5cf"></path><path d="M91.839,27.77c-1.963,6.09-1.145,5.308-7.289,5.29,4.981,3.6,4.781,2.509,2.781,8.58,4.963-3.617,3.854-3.763,9.016,0-1.909-5.835-2.381-4.835,2.8-8.58C93,33.078,93.8,33.86,91.839,27.77Z" transform="translate(503.846 1539.495)" fill="#1e1e1e" fill-rule="evenodd"></path><path d="M89.82,27.77c-1.419,4.4-.828,3.838-5.27,3.824,3.6,2.6,3.456,1.814,2.011,6.2,3.588-2.615,2.786-2.72,6.518,0-1.38-4.219-1.722-3.5,2.024-6.2C90.661,31.608,91.239,32.173,89.82,27.77Z" transform="translate(492.293 1549.351)" fill="#1e1e1e" fill-rule="evenodd"></path></g></svg>